<svg xmlns="http://www.w3.org/2000/svg" xmlns:xlink="http://www.w3.org/1999/xlink" fill="none" version="1.1" width="24" height="24" viewBox="0 0 24 24"><g><g></g><g><path d="M4,16.4444L4,11Q3.999999880791,7.68629,6.34315,5.34315Q8.68629,3.000000596046,12,3Q15.3137,3.000000953674,17.6569,5.34315Q20,7.68629,20,11L20,16.4444Q20,17.503,19.2515,18.2515Q18.503,19,17.4444,19L6.55556,19Q5.4970099999999995,19,4.748505,18.2515Q4,17.503,4,16.4444ZM6,16.4444Q6,17,6.55556,17L17.4444,17Q17.674599999999998,17,17.8373,16.8373Q18,16.674599999999998,18,16.4444L18,11Q18,8.51472,16.2426,6.75736Q14.4853,5,12,5Q9.51472,5,7.75736,6.75736Q6,8.51472,6,11L6,16.4444Z" fill-rule="evenodd" fill="#FFFFFF" fill-opacity="1"/></g><g transform="matrix(-0.00024400911934208125,1,-1,-0.0002440405369270593,15.003172118551447,-10.999511918926146)"><path d="M14,4L15,4C15.55228,4,16,3.55228,16,3C16,2.447715,15.55228,2,15,2L14,2C13.447715,2,13,2.447715,13,3C13,3.55228,13.447715,4,14,4Z" fill-rule="evenodd" fill="#FFFFFF" fill-opacity="1"/></g><g><path d="M9,19.5L15,19.5C15.55228,19.5,16,19.947715,16,20.5C16,21.05228,15.55228,21.5,15,21.5L9,21.5C8.447715,21.5,8,21.05228,8,20.5C8,19.947715,8.447715,19.5,9,19.5Z" fill-rule="evenodd" fill="#FFFFFF" fill-opacity="1"/></g></g></svg>